<svg xmlns="http://www.w3.org/2000/svg" viewBox="0 0 100 100" id="Gym">
  <path fill="#ffffff" d="M86,92H74a2,2,0,0,1-2-2V42.05a2,2,0,0,1,2-2H86a2,2,0,0,1,2,2V90A2,2,0,0,1,86,92ZM76,88h8V44.05H76Z" class="color091531 svgShape"></path>
  <path fill="#ffffff" d="M98 84H86a2 2 0 01-2-2V50a2 2 0 012-2H98a2 2 0 012 2V82A2 2 0 0198 84zM88 80h8V52H88zM26 92H16a2 2 0 01-2-2V42a2 2 0 012-2H26a2 2 0 012 2V90A2 2 0 0126 92zm-8-4h6V44H18z" class="color091531 svgShape"></path>
  <path fill="#ffffff" d="M16 84H2a2 2 0 01-2-2V50a2 2 0 012-2H16a2 2 0 012 2V82A2 2 0 0116 84zM4 80H14V52H4zM74 68H26a2 2 0 010-4H74a2 2 0 010 4zM50 56a2 2 0 01-1.41-.59l-20-19.94A16.11 16.11 0 0150 11.43a16.13 16.13 0 0121.36 1.26h0a16.1 16.1 0 010 22.78l-20 19.94A2 2 0 0150 56zM40 12a12.1 12.1 0 00-8.56 20.66L50 51.17 68.53 32.64a12.1 12.1 0 000-17.12h0a12.12 12.12 0 00-17.12 0 2 2 0 01-2.82 0A12.07 12.07 0 0040 12z" class="color091531 svgShape"></path>
</svg>
