<svg xmlns="http://www.w3.org/2000/svg" viewBox="0 0 25 25" id="HeartGrowth">
  <path d="M19 6v1h1.19l-1.84 1.63a3.45 3.45 0 0 0-.61-.87 3.48 3.48 0 0 0-4.94 0L11.5 9l-1.3-1.24a3.5 3.5 0 0 0-5 4.94l6.25 6.52 6.24-6.52a3.46 3.46 0 0 0 1-2.57l-1.19 1.06a2.4 2.4 0 0 1-.5.81l-5.5 5.78L8.87 15l-.28-.29 1.88-1.57 2 2L21 7.61V9h1V6Zm-8.47 5.82L7.9 14 6 12a2.5 2.5 0 0 1 3.5-3.54l2 2 2-2a2.52 2.52 0 0 1 3.54 0 2.58 2.58 0 0 1 .53.86l-5.05 4.49Z" fill="#ffffff" class="color000000 svgShape"></path>
</svg>
